<svg width="1920" height="561" viewBox="0 0 1920 561" fill="none" xmlns="http://www.w3.org/2000/svg">
<path d="M560.785 54.3774C333.259 -29.753 90.7925 2.16566 -2 28.6413V562H1918V64.784C1840.11 4.43726 1361.25 -0.644786 1261.75 11.3358C1162.26 23.3164 845.192 159.541 560.785 54.3774Z" fill="url(#paint0_linear_0_265)"/>
<path d="M355.183 139.427C243.368 99.3109 83.4938 115.908 17.5337 129.22H0V561H1917.38C1927.74 426.836 1919.79 146.546 1902.39 99.7891C1883.21 48.2342 1882.92 48.2981 1805.66 64.9659L1801.96 65.7625C1663.7 107.299 1567.01 95.4945 1535.95 84.4004C1326.55 -30.9775 978.381 86.1754 856.146 129.22C733.911 172.265 494.951 189.572 355.183 139.427Z" fill="url(#paint1_linear_0_265)"/>
<defs>
<linearGradient id="paint0_linear_0_265" x1="958" y1="0" x2="958" y2="562" gradientUnits="userSpaceOnUse">
<stop stop-color="#22C2D6" stop-opacity="0.09"/>
<stop offset="1" stop-color="#001F25" stop-opacity="0.19"/>
</linearGradient>
<linearGradient id="paint1_linear_0_265" x1="-125.394" y1="223.155" x2="2338.84" y2="792.904" gradientUnits="userSpaceOnUse">
<stop stop-color="#22C2D6" stop-opacity="0"/>
<stop offset="1" stop-color="#030304" stop-opacity="0.09"/>
</linearGradient>
</defs>
</svg>
